# xmcd
#
# Track frame offsets:
#	150
#	20222
#	35952
#	49812
#	72809
#	92221
#	106778
#	123868
#	141083
#	161166
#	176879
#	190739
#	213756
#	233193
#	247740
#	264827
#	293169
#
# Disc length: 3921 seconds
#
# Revision: 1
# Processed by: cddbd v1.5.2PL0 Copyright (c) Steve Scherf et al.
# Submitted via: audiograbber 1.83.01
#
DISCID=f20f4f11
DTITLE=Female Country Hits - Star Series 2343
DYEAR=2001
DGENRE=Country
TTITLE0=Sara Evans - I Could Not Ask For More
TTITLE1=Cyndi Thomson - What I Really Meant To Say
TTITLE2=Trick Pony - Pour Me
TTITLE3=Jo Dee Messina - Burn
TTITLE4=Jessica Andrews - Who I Am
TTITLE5=Jamie O'Neal - When I Think About Angels
TTITLE6=Carolyn Dawn Johnson - Complicated
TTITLE7=Martina McBride - When God-Fearin' Women Get The Blues
TTITLE8=Sara Evans - I Could Not Ask For More Vocals
TTITLE9=Cyndi Thomson - What I Really Meant To Say Vocals
TTITLE10=Trick Pony - Pour Me Vocals
TTITLE11=Jo Dee Messina - Burn Vocals
TTITLE12=Jessica Andrews - Who I Am Vocals
TTITLE13=Jamie O'Neal - When I Think About Angels Vocals
TTITLE14=Carolyn Dawn Johnson - Complicated Vocals
TTITLE15=Martina McBride - When God-Fearin' Women Get The Blues
TTITLE16=Data - Data Track
EXTD=
EXTT0=
EXTT1=
EXTT2=
EXTT3=
EXTT4=
EXTT5=
EXTT6=
EXTT7=
EXTT8=
EXTT9=
EXTT10=
EXTT11=
EXTT12=
EXTT13=
EXTT14=
EXTT15=
EXTT16=
PLAYORDER=
